<svg id="Layer_1" data-name="Layer 1" xmlns="http://www.w3.org/2000/svg" viewBox="0 0 144.59 140.21"><defs><style>.cls-1{fill:#ed6749;}.cls-1,.cls-2,.cls-3{fill-rule:evenodd;}.cls-2{fill:#d84127;}.cls-3{fill:#f0825a;}.cls-4{fill:#fff;}</style></defs><path class="cls-1" d="M93.94,69.27c8.46,13.23,7.54,17.78-6.61,32.57-4.51.31-8.55,4.85-13.47,1.51-1.32-7.55,4.06-12.44,8.31-19.12C72,82,61.79,80.9,55.06,72.62c-3.9-3.12-6.12-6.43-3.79-11.9,1.77-4.16,2.46-8.82,3.34-13.33l0,0c6.4-5.73,13-7,20.17-1.23a13.62,13.62,0,0,0,7,2.57c12.92,1.77,14.62,4.27,12,17.45A4.19,4.19,0,0,0,93.94,69.27Z"/><path class="cls-1" d="M54.61,47.39C54.7,52.33,55.82,57.5,52.93,62c-3.49,5.39,3.45,6,4,9.47,3.69,5.79,7.82,11,14,14.64,4,2.33,6.19,6,4.23,10.94-3.6,3-7.14,1.07-9.59-1.21C59,89.69,50.69,86,43.87,80.34a26.8,26.8,0,0,1-2-2.42C43.35,66.58,50.06,57.44,54.61,47.39Z"/><path class="cls-2" d="M93.94,69.27c-2.48-1.58-1-3.53-.81-5.59.66-7.26.51-14.07-10.24-11.9-2.64.53-6,.94-8-1.63-6-7.65-12.83-7-20.29-2.71,4.12-4.36,26.11-9.61,30.56-7.28C95.44,45.52,98,54,93.94,69.27Z"/><path class="cls-3" d="M41.89,77.92c.68,0,1.36,0,2,0,1.2,2.23,3.34,3.88,4.13,6.33C50.86,93,56.94,97,65.87,97.35c2.91.11,5.79.58,7.86,3l.6,1.46c4.33,3.74,8.67-1.79,13,0-5.55,3.87-11.21,6.31-17.74,2-2.07-1.35-4.21-1.12-5.48,1.28-4.69,8.89-10.22,3.82-13.47-.31C44.61,97.17,38,89.06,41.89,77.92Z"/><path class="cls-1" d="M63.63,119.65c.16-2.19,1.07-3.71,3.19-3.45,3,.36,4,2.84,3.82,5.35-.14,1.91-.85,4.79-3.62,3.94C64.52,124.74,64.05,121.89,63.63,119.65Z"/><path class="cls-1" d="M100.17,96.54a4.25,4.25,0,0,1,3.7,4.49c0,2.7-1.85,3.59-4.23,3.42s-4-1.45-3.65-4.06A4.14,4.14,0,0,1,100.17,96.54Z"/><path class="cls-1" d="M43.27,109.42c-.25-1.72.68-2.22,1.71-2a3.29,3.29,0,0,1,2.16,1.6,1.33,1.33,0,0,1-1.67,1.76A7.33,7.33,0,0,1,43.27,109.42Z"/><path class="cls-1" d="M74.31,97.5c.41-4.41-1.09-8.56-5.18-9.77C60.69,85.21,59,78.37,56.94,71.45c6.44,5.6,13.53,9.38,22.43,8.74,2.93-.21,6.12.11,7,3.63.79,3.19-2.08,4.25-4.23,5.46-4.91,2.77-4.18,9-7.8,12.54l0,0C73.12,100.4,73,99,74.31,97.5Z"/><path class="cls-1" d="M74.31,97.5l0,4.36c-2-.71-4-1.81-6.06-2.07C49.06,97.38,49.05,97.42,43.93,78Z"/><path class="cls-4" d="M79.52,106.53V84.89h7.26l1.09-8.43H79.52V71.07c0-2.44.68-4.1,4.18-4.1h4.47V59.42a61,61,0,0,0-6.51-.33c-6.44,0-10.85,3.93-10.85,11.15v6.22H63.53v8.43h7.28v21.64Z"/></svg>
