<svg id="Layer_1" data-name="Layer 1" xmlns="http://www.w3.org/2000/svg" viewBox="0 0 144.59 140.21"><defs><style>.cls-1{fill:#d84127;}.cls-1,.cls-2{fill-rule:evenodd;}.cls-2{fill:#ed6749;}.cls-3{fill:#fff;}</style></defs><path class="cls-1" d="M70.13,37.84c9.75-3.14,16.71-.53,17.93,6.73C80.53,47.81,76.31,39.36,70.13,37.84Z"/><path class="cls-2" d="M96.2,63.93c8.46,13.23,7.54,17.78-6.61,32.57-4.51.31-8.55,4.85-13.47,1.51-1.32-7.55,4.06-12.44,8.31-19.12-10.2-2.26-20.38-3.33-27.11-11.61-3.9-3.12-6.12-6.43-3.79-11.9,1.76-4.16,2.46-8.82,3.34-13.33l0,.05c6.39-5.73,13-7.05,20.17-1.23a13.62,13.62,0,0,0,7,2.57c12.92,1.77,14.62,4.27,12,17.45A4.19,4.19,0,0,0,96.2,63.93Z"/><path class="cls-2" d="M56.87,42.05C57,47,58.08,52.16,55.19,56.64c-3.49,5.39,3.45,6,4,9.47,3.69,5.79,7.82,11,14,14.64,4,2.33,6.19,6,4.23,10.94-3.6,3-7.14,1.07-9.59-1.21C61.21,84.35,53,80.7,46.12,75a28.5,28.5,0,0,1-2-2.42C45.61,61.24,52.32,52.1,56.87,42.05Z"/><path class="cls-2" d="M44.15,72.58c.68,0,1.36,0,2,0,1.2,2.15,3.33,3.75,4.13,6.12,2.8,8.39,8.88,12.33,17.81,12.64,2.9.11,5.79.56,7.86,2.92l.6,1.4c4.33,3.62,8.67-1.73,13,0-5.55,3.74-11.21,6.1-17.74,2-2.07-1.31-4.21-1.09-5.48,1.24-4.69,8.6-10.22,3.69-13.47-.31C46.87,91.21,40.26,83.36,44.15,72.58Z"/><path class="cls-2" d="M76.57,92.16c.41-4.41-1.09-8.56-5.18-9.77C63,79.87,61.23,73,59.2,66.11c6.44,5.6,13.53,9.38,22.43,8.74,2.93-.21,6.12.11,7,3.63.79,3.19-2.08,4.25-4.23,5.46-4.91,2.77-4.18,9-7.8,12.54l0,0C75.38,95.06,75.21,93.61,76.57,92.16Z"/><path class="cls-2" d="M76.57,92.16l0,4.36c-2-.71-4-1.81-6.06-2.07C51.32,92,51.31,92.08,46.19,72.62Z"/><path class="cls-3" d="M80,59.75a5.77,5.77,0,0,1-2,4.38,7,7,0,0,1-9.39,0,5.95,5.95,0,0,1,0-8.77,7,7,0,0,1,9.39,0A5.77,5.77,0,0,1,80,59.75Z"/><rect class="cls-3" x="67.86" y="69.78" width="10.87" height="30.82"/></svg>
