<svg id="Layer_1" data-name="Layer 1" xmlns="http://www.w3.org/2000/svg" viewBox="0 0 144.59 140.21"><defs><style>.cls-1{fill:#d84127;}.cls-1,.cls-2{fill-rule:evenodd;}.cls-2{fill:#ed6749;}.cls-3{fill:#fff;}</style></defs><path class="cls-1" d="M103.91,91.7c-.15-1.81-.45-3.52-2.29-4.45,0-3.25,1.21-5.72,4.47-6.86C103.66,83.83,112.23,89.39,103.91,91.7Z"/><path class="cls-2" d="M41.09,51.43,43.46,49C52.78,38.43,66,40.46,76.13,43.32s19.73,9.51,29.32,15c5.27,5.2,5.92,11.21,3.09,17.82-.11,1.83-.67,3.4-2.46,4.27-2.22,2.35-1.79,5.74-3.28,8.38-3.38,3.57-8.93,5.38-12.09,3.55C82,87.25,79.47,92.19,77,98.74c-17.07,8.79-16,7.38-29.78-7C34.7,78.59,34.12,66.23,41.09,51.43Z"/><path class="cls-2" d="M76.81,98.74c3.32-6.11-4.48-3.62-5.68-7.57a22.87,22.87,0,0,0,18.55-8.55c4.08,3.74-.53,5.42.2,8.44,4.44.69,8.15-1.31,11.71-3.81,4.23-.28,3.66,1.88,2.31,4.45Z"/><path class="cls-2" d="M50.15,103.65,48,103c-8.93-2.34-11.65-10.69-13-17.46s-.27-14.36.1-21.59c1.49-4.62,4.81-6.78,9.52-7.08a3,3,0,0,1,3.22.17c2,.61,3.9-.64,5.89-.55,3.08.92,5.78,3.63,5.64,6-.38,6.61,3.25,6.61,7.81,6.11,10.2,7.4,9.06,7.19,4.7,19.52C67.94,99.36,60.88,103.35,50.15,103.65Z"/><path class="cls-2" d="M39.86,95h0a2.39,2.39,0,0,1-2.35-2.39V92.5a2.14,2.14,0,0,1,1.2-1.62c4.52-2.44,2.58-7.7,5.41-10.77,3.64-3.93,5.85-2.84,6.59,1.4a2.13,2.13,0,0,0,.7,1.26c2.81,2.46,7.45,1.52,10.43,3.66a2.8,2.8,0,0,0,1.34.47l4.26.42a2.31,2.31,0,0,1,2.25,2.79c-2.07,6.77-10.34,7.92-16.52,11a2.75,2.75,0,0,1-.9.26c-5.12.55-8.11-1.83-10.36-5.23A2.72,2.72,0,0,0,39.86,95Z"/><polygon class="cls-3" points="93.21 69.46 59.41 69.46 71.17 57.69 66.62 53.14 46.62 73.14 66.62 93.14 71.17 88.59 59.41 76.82 93.21 76.82 93.21 69.46"/></svg>