<svg id="Layer_1" data-name="Layer 1" xmlns="http://www.w3.org/2000/svg" viewBox="0 0 153.89 140.21"><defs><style>.cls-1{fill:#ed6749;}.cls-1,.cls-2{fill-rule:evenodd;}.cls-2{fill:#d84127;}.cls-3{fill:#fff;}</style></defs><path class="cls-1" d="M36.55,61.41c-4.31-8.1-3.16-12.17,6.72-16.1s53.23-3.34,50,0,.65,2.31-.48,3.26c-3.36,2.14-7.15,2-10.89,2.08-8.68.11-17.35,0-26,.06-6.59,0-11.78,2.21-14.78,8.4C40,60.59,38.61,61.73,36.55,61.41Z"/><path class="cls-1" d="M91.26,48.11c0-.75,0-1.51,0-2.26h2.28c1.81,3.22,5.54,1.52,7.94,3.06,3,1.93,2.21,3.27-.94,3.88-2.1,1.79-.69,4.83-2.39,6.76,0,1.48,0,3,0,4.45-6.22.14-7.45-5.36-10.28-9.08C86.93,51.62,88.72,49.68,91.26,48.11Z"/><path class="cls-1" d="M36.55,61.41,39,58.93C48.38,48.25,61.78,50.3,72,53.2s20,9.63,29.68,15.16c5.34,5.28,6,11.36,3.13,18.06-.11,1.85-.67,3.44-2.48,4.32-2.25,2.38-1.82,5.81-3.33,8.49-3.42,3.61-9,5.45-12.25,3.59-8.83-5.14-11.37-.14-13.85,6.51-17.3,8.89-16.22,7.47-30.17-7.12C30.07,88.92,29.49,76.4,36.55,61.41Z"/><path class="cls-1" d="M100.17,70.32c-2.82.54-2.57-10.57-8.16-1.76-2.16,3.41-4.46-1.93-6.43-3.74C73.26,53.41,52.4,50.77,39,58.93,40.57,50.62,45.83,47.3,54,47.52c9.29.26,18.58.19,27.88.26,3,2.27,4.6,6.47,9.15,6.53,4.55,1.56,5.54,6.64,9.12,9.16l2.37,2.17C104,68.33,101.75,69.16,100.17,70.32Z"/><path class="cls-1" d="M72.94,109.33c3.33-6.19-4.51-3.68-5.72-7.67A22.9,22.9,0,0,0,85.87,93c4.1,3.8-.53,5.49.2,8.55,4.47.7,8.19-1.32,11.77-3.86,4.26-.28,3.68,1.91,2.32,4.51Z"/><path class="cls-2" d="M100.17,70.32l2.39-4.68c6.18,6.33,13.11,12.58,2.29,20.77C103.39,81,105.12,74.7,100.17,70.32Z"/><path class="cls-2" d="M100.16,102.19c-.14-1.83-.45-3.57-2.32-4.51,0-3.28,1.24-5.79,4.53-6.94C99.91,94.22,108.59,99.85,100.16,102.19Z"/><path class="cls-1" d="M98.15,60.09c-1.23-3-4.27-7.75,2-8.07,3.17-1.14,5.17,6.73,5.17,6.73S99.17,63.22,98.15,60.09Z"/><path class="cls-1" d="M91.07,54.31a25.49,25.49,0,0,1-2,3.39c-4.35-1.82-7.44-4.7-7.14-9.92l11.4-.21Z"/><path class="cls-1" d="M45.72,114.29l-2.16-.67c-9-2.36-11.81-10.82-13.14-17.67s-.27-14.55.1-21.87c1.51-4.68,4.88-6.87,9.64-7.17a3,3,0,0,1,3.27.18c2.06.61,3.94-.66,6-.57,3.13.94,5.87,3.69,5.72,6.11-.39,6.69,3.29,6.7,7.91,6.19,10.32,7.49,9.17,7.28,4.76,19.76C63.74,110,56.58,114,45.72,114.29Z"/><path class="cls-1" d="M36.41,109c-1.35-.11-2.69-.24-4-.39l.39-4c6-2.67,3.65-9.58,6.79-13.58,3.93-5,6.19-3.38,6.73,2.32,2.83,4,8.46,2,11.61,5.38l7.9.79C65,110.54,55,111.79,47.93,116.18,41.91,117.28,38.76,113.76,36.41,109Z"/><path class="cls-3" d="M76.42,100.76H57.34A15.37,15.37,0,0,1,42,85.4V68.59A15.37,15.37,0,0,1,57.34,53.24H76.42A15.37,15.37,0,0,1,91.78,68.59V85.4A15.38,15.38,0,0,1,76.42,100.76ZM57.34,56.65A12,12,0,0,0,45.4,68.59V85.4A12,12,0,0,0,57.34,97.35H76.42A12,12,0,0,0,88.36,85.4V68.59A12,12,0,0,0,76.42,56.65Z"/><path class="cls-3" d="M66.88,90.67A13.67,13.67,0,1,1,80.55,77,13.7,13.7,0,0,1,66.88,90.67Zm0-23.93A10.26,10.26,0,1,0,77.14,77,10.27,10.27,0,0,0,66.88,66.74Z"/><path class="cls-3" d="M83.18,63.75a2.84,2.84,0,1,1-2.84-2.84A2.83,2.83,0,0,1,83.18,63.75Z"/></svg>