<svg id="Layer_1" data-name="Layer 1" xmlns="http://www.w3.org/2000/svg" viewBox="0 0 144.59 140.21"><defs><style>.cls-1{fill:#ed6749;}.cls-1,.cls-2,.cls-3{fill-rule:evenodd;}.cls-2{fill:#d84127;}.cls-3{fill:#f0825a;}.cls-4{fill:#fff;}</style></defs><path class="cls-1" d="M57.41,117.49l-20-13.2c-2.75-3.19-2.06-6.48-.36-9.82,1.94-3,1.8-6.09.72-9.31a16.48,16.48,0,0,1,.28-8.59c2.08-5.78,6.06-10.2,10.3-14.45C51.84,58.9,55,55.3,58.8,52.43A11.51,11.51,0,0,1,62.14,51c8.12-.41,15.23,3.5,22.85,5.33a7.49,7.49,0,0,1,2.66,2.5c1.82,3.91,1.53,8.41,3.5,12.29A35.8,35.8,0,0,1,94.27,82a19,19,0,0,1-2,9.64c-10.69,22.15-15.85,13-24.65,23.29C66.61,116.13,59.76,117.77,57.41,117.49Z"/><path class="cls-1" d="M57.41,117.49c5.49-1.61,12.23-1.75,9.58-10.94-1.63-5.64,3.7-3.66,6.33-4.87,8.94-4.09,19.08-7.37,18-20.4,7.38,1.38,4.69,7.15,5.07,11.59.69,7.6-4.93,10.82-10,14.4C80.05,120.15,68.75,118.87,57.41,117.49Z"/><path class="cls-2" d="M86.36,107.27c1.17-5.13,7.86-7.07,7.53-13.06,2.26-8,2.2-15.62-1.94-23.2-4-7.25-4.72-15.23-3.61-23.39a4.46,4.46,0,0,1,5.53.21C104.63,61,100.71,76.16,99.75,91,99.18,99.81,99.16,108.67,86.36,107.27Z"/><path class="cls-3" d="M40.08,76.16,40,86.41c1.54,2.64-.61,5.15-.3,7.75a16.72,16.72,0,0,0-2.25,10.13c-7.64-3.12-4.75-9.77-5.14-15.32-.35-8.15,2.61-15.51,5.42-22.91C38.45,66,39.2,66,40,66,42.63,69.36,41.45,72.76,40.08,76.16Z"/><path class="cls-1" d="M42.66,58.45C45.42,43,59.32,36.36,70.6,45.11c.19.57.38,1.14.58,1.71-7.11,6.49-19,2.19-25,11.14A4.83,4.83,0,0,1,42.66,58.45Z"/><path class="cls-3" d="M37.69,66.06c1,8.29-2.13,15.62-5.42,22.91C28.78,80.08,29,72.06,37.69,66.06Z"/><path class="cls-1" d="M42.66,58.45l2.39-.29,1.52,0c2,1.14,5.24,1.39,3.61,5.09L40.08,76.16,40,66Z"/><path class="cls-2" d="M93.87,47.83l-5.18.08c-6.47,4.23-12.08,1.24-17.63-2.13l-.46-.67C78.93,41.08,86.78,41.24,93.87,47.83Z"/><path class="cls-1" d="M71.06,45.78c6.11-1.23,11.71,1.79,17.63,2.13.92,15.52,15.83,29.48,5.2,46.3-.69-4.35,1.69-9.31-2.59-12.93Q90,76.15,88.71,71c-3-3.85.61-9-2.58-12.85h0C77.82,55.28,70.07,49.52,60.47,53h0c-4.88,2.31-9.29,6-15.22,5.21l-.2-.09c1.29-8,7.38-9.39,13.91-10.19C63,47.47,67.51,49.17,71.06,45.78Z"/><path class="cls-1" d="M60.47,53c10.09-6,18.24-2.2,25.67,5.14C77,59.44,69.42,52.78,60.47,53Z"/><path class="cls-1" d="M45.25,58.25C49.62,54.48,54.44,52,60.47,53A26.61,26.61,0,0,1,50.18,63.29Z"/><path class="cls-1" d="M86.13,58.16c4.31,3.59,2,8.52,2.58,12.85C84.44,67.41,86.77,62.49,86.13,58.16Z"/><path class="cls-4" d="M63.44,57.37a18.63,18.63,0,1,0,11.8,34.09l10.34,10.18,4.78-4.78L80.09,86.75A18.62,18.62,0,0,0,63.44,57.37Zm4.77,31.34A13.11,13.11,0,1,1,78,79,12.89,12.89,0,0,1,68.21,88.71Z"/></svg>